<?xml version="1.0" encoding="UTF-8"?>
<svg version="1.1" xmlns="http://www.w3.org/2000/svg" width="1500" height="1500">
<path d="M0 0 C1.09006348 0.65677734 2.18012695 1.31355469 3.30322266 1.99023438 C16.47551716 9.94916487 29.46463765 18.0687298 42 27 C43.17154042 27.82469424 44.34341468 28.64891446 45.515625 29.47265625 C71.27624985 47.64836822 96.36295433 67.16624334 119.38623047 88.7277832 C122.10928499 91.27531607 124.87014918 93.75876176 127.69750977 96.19042969 C131.95796423 99.91257901 135.97938299 103.83469129 139.97265625 107.83984375 C140.69940048 108.56563126 141.42614471 109.29141876 142.1749115 110.03919983 C143.69962296 111.56323556 145.2230915 113.08851569 146.74536133 114.61499023 C149.05633891 116.93132463 151.37260771 119.24227078 153.68945312 121.55273438 C155.1800082 123.04395034 156.670253 124.53547653 158.16015625 126.02734375 C158.84263931 126.70780258 159.52512238 127.38826141 160.22828674 128.08934021 C164.13328106 132.01314566 167.86291414 136.03867692 171.473526 140.2354126 C173.71091713 142.8218125 176.04405784 145.3100621 178.375 147.8125 C182.58953226 152.37950211 186.60296613 157.06279362 190.5 161.90625 C192.39904647 164.25632 194.31458696 166.58643622 196.25 168.90625 C204.14906387 178.38600481 211.70662867 188.04800815 219 198 C219.50321777 198.68078613 220.00643555 199.36157227 220.52490234 200.06298828 C261.0127763 254.86772154 294.14143581 315.17448386 318 379 C318.4223291 380.12937988 318.8446582 381.25875977 319.27978516 382.42236328 C343.17814328 446.82765803 357.81623782 513.62368067 364 582 C364.17789062 583.90942383 364.17789062 583.90942383 364.359375 585.85742188 C372.40452361 676.31745597 361.57470858 768.75640054 295.37304688 964.11425781 C294.04815552 966.89879121 292.74714157 969.69319533 291.453125 972.4921875 C285.50194792 985.29895079 278.92569948 997.69578845 272 1010 C271.13133301 1011.54977539 271.13133301 1011.54977539 270.24511719 1013.13085938 C261.41764353 1028.82942199 252.04377083 1044.05252104 242 1059 C241.36529785 1059.9492334 240.7305957 1060.8984668 240.07666016 1061.87646484 C232.47169303 1073.23298513 224.68155372 1084.40063197 216.35253906 1095.23876953 C215.05874185 1096.92350836 213.77424761 1098.61491418 212.4921875 1100.30859375 C199.05198195 1118.00455034 184.78470698 1135.01367481 169.61157227 1151.24487305 C168.45990413 1152.4991288 167.32403363 1153.76796451 166.19897461 1155.04614258 C159.46354879 1162.67951866 152.29555474 1169.85623369 145.08862305 1177.04174805 C142.93487478 1179.19011866 140.78654774 1181.34380694 138.63867188 1183.49804688 C137.24771646 1184.88834168 135.85645097 1186.27832636 134.46484375 1187.66796875 C133.83440659 1188.30043015 133.20396942 1188.93289154 132.5544281 1189.58451843 C128.75556747 1193.36378101 124.8426974 1196.95841969 120.78244019 1200.45567322 C118.19144564 1202.70054084 115.69606663 1205.03834913 113.1875 1207.375 C108.62531976 1211.58508254 103.9469548 1215.59444896 99.109375 1219.48828125 C96.70868135 1221.42753504 94.32620166 1223.38286255 91.953125 1225.35546875 C84.33824303 1231.68221862 76.69424057 1237.90550405 68.69824219 1243.74951172 C66.74899231 1245.18482768 64.8160792 1246.64088655 62.8828125 1248.09765625 C50.25225348 1257.57125589 37.22637648 1266.382125 24 1275 C22.7629834 1275.80800049 22.7629834 1275.80800049 21.50097656 1276.63232422 C-51.57937562 1324.16661932 -132.99889724 1357.53167817 -321 1393 C-322.90942383 1393.17789062 -322.90942383 1393.17789062 -324.85742188 1393.359375 C-415.33675886 1401.40624033 -507.72724532 1390.54396237 -702 1325 C-703.10537109 1324.48791992 -704.21074219 1323.97583984 -705.34960938 1323.44824219 C-720.21870284 1316.52150751 -734.72081491 1309.07063562 -749 1301 C-750.05928711 1300.40251953 -751.11857422 1299.80503906 -752.20996094 1299.18945312 C-765.08378261 1291.90493739 -777.81427551 1284.48000595 -790.11474609 1276.25878906 C-791.99362962 1275.00425352 -793.88044865 1273.76255011 -795.76953125 1272.5234375 C-809.50848946 1263.48125258 -822.92783761 1253.98173269 -836 1244 C-837.010625 1243.23429687 -838.02125 1242.46859375 -839.0625 1241.6796875 C-856.83407029 1228.16506014 -873.93600146 1213.85731704 -890.24487305 1198.61157227 C-891.4991288 1197.45990413 -892.76796451 1196.32403363 -894.04614258 1195.19897461 C-901.67951866 1188.46354879 -908.85623369 1181.29555474 -916.04174805 1174.08862305 C-918.19011866 1171.93487478 -920.34380694 1169.78654774 -922.49804688 1167.63867188 C-923.88834168 1166.24771646 -925.27832636 1164.85645097 -926.66796875 1163.46484375 C-927.30043015 1162.83440659 -927.93289154 1162.20396942 -928.58451843 1161.5544281 C-932.36378101 1157.75556747 -935.95841969 1153.8426974 -939.45567322 1149.78244019 C-941.70054084 1147.19144564 -944.03834913 1144.69606663 -946.375 1142.1875 C-950.58953226 1137.62049789 -954.60296613 1132.93720638 -958.5 1128.09375 C-960.39904647 1125.74368 -962.31458696 1123.41356378 -964.25 1121.09375 C-972.14888637 1111.61420821 -979.70946973 1101.95387795 -987 1092 C-987.51385254 1091.30326172 -988.02770508 1090.60652344 -988.55712891 1089.88867188 C-997.42878292 1077.84876492 -1005.83212812 1065.52694117 -1014 1053 C-1014.50885742 1052.22076172 -1015.01771484 1051.44152344 -1015.54199219 1050.63867188 C-1059.85034369 982.46748373 -1092.26943575 906.81808296 -1112 828 C-1112.3000293 826.81180664 -1112.60005859 825.62361328 -1112.90917969 824.39941406 C-1135.60553022 733.68826388 -1140.22388278 638.37406999 -1064 327 C-1063.48791992 325.89462891 -1062.97583984 324.78925781 -1062.44824219 323.65039062 C-1055.52086326 308.77991419 -1048.03979121 294.29732401 -1040 280 C-1039.505 279.11328613 -1039.01 278.22657227 -1038.5 277.31298828 C-1010.66110761 227.49840773 -976.59252785 180.45432948 -937.61157227 138.75512695 C-936.45990413 137.5008712 -935.32403363 136.23203549 -934.19897461 134.95385742 C-927.46354879 127.32048134 -920.29555474 120.14376631 -913.08862305 112.95825195 C-910.93487478 110.80988134 -908.78654774 108.65619306 -906.63867188 106.50195312 C-905.24771646 105.11165832 -903.85645097 103.72167364 -902.46484375 102.33203125 C-901.83440659 101.69956985 -901.20396942 101.06710846 -900.5544281 100.41548157 C-896.75556747 96.63621899 -892.8426974 93.04158031 -888.78244019 89.54432678 C-886.19144564 87.29945916 -883.69606663 84.96165087 -881.1875 82.625 C-876.62049789 78.41046774 -871.93720638 74.39703387 -867.09375 70.5 C-864.74368 68.60095353 -862.41356378 66.68541304 -860.09375 64.75 C-850.61399519 56.85093613 -840.95199185 49.29337133 -831 42 C-830.31921387 41.49678223 -829.63842773 40.99356445 -828.93701172 40.47509766 C-802.81699531 21.17851743 -775.3940782 3.74641375 -747 -12 C-745.44829102 -12.86214111 -745.44829102 -12.86214111 -743.86523438 -13.74169922 C-688.2413907 -44.48684513 -628.63256756 -67.57149313 -567 -83 C-565.81180664 -83.3000293 -564.62361328 -83.60005859 -563.39941406 -83.90917969 C-472.68826388 -106.60553022 -377.37406999 -111.22388278 0 0 Z " fill="#F54B4B" transform="translate(1134,105)"/>
<path d="M0 0 C1.19322372 -0.00852997 2.38644745 -0.01705994 3.61582947 -0.02584839 C4.93173065 -0.02494202 6.24763184 -0.02403564 7.60340881 -0.02310181 C8.99783693 -0.02908358 10.39226172 -0.0358883 11.78668213 -0.04345703 C15.5800502 -0.06115954 19.37332812 -0.06581417 23.1667335 -0.0670886 C26.33038369 -0.06898507 29.49401275 -0.07633964 32.65765482 -0.08343279 C40.11972689 -0.09973029 47.58175068 -0.10460049 55.0438385 -0.10317993 C62.74879446 -0.10197793 70.45347055 -0.12308803 78.15835565 -0.15466726 C84.7673188 -0.18079235 91.37619034 -0.19154883 97.98520476 -0.19026911 C101.93521265 -0.18975839 105.88497191 -0.195502 109.83492851 -0.21662521 C113.54913183 -0.2359447 117.26284775 -0.23617587 120.97706795 -0.22159195 C122.99348932 -0.21849318 125.0099104 -0.2352239 127.02626038 -0.25247192 C128.22230392 -0.24408295 129.41834747 -0.23569397 130.65063477 -0.22705078 C131.69242858 -0.22814032 132.73422239 -0.22922985 133.80758572 -0.2303524 C136.3888092 0.26742554 136.3888092 0.26742554 138.02608812 1.84555775 C139.90073092 5.1772278 139.76804908 7.69786029 139.77357006 11.51508808 C139.77871997 12.25040789 139.78386987 12.98572769 139.78917584 13.74332991 C139.80285564 16.2223401 139.79509169 18.70082541 139.78753662 21.17985535 C139.7929741 22.97152672 139.79972484 24.76319451 139.80767852 26.55485648 C139.82577772 31.49501838 139.82513695 36.43503051 139.82154906 41.3752178 C139.82092653 46.70682489 139.83754233 52.03838115 139.85206604 57.3699646 C139.87494807 66.64857668 139.88675667 75.92715106 139.8911953 85.20578957 C139.89770489 98.79428214 139.9207532 112.38270877 139.94753859 125.97117468 C139.99097506 148.2459399 140.02082883 170.52070643 140.04237366 192.79550171 C140.06294989 214.04095979 140.09002431 235.28639126 140.12635803 256.53182983 C140.12855386 257.81925284 140.13074968 259.10667585 140.13301204 260.43311168 C140.14409068 266.91244499 140.15527658 273.3917781 140.16649795 279.87111115 C140.24713748 326.57596924 140.30528792 373.28081759 140.34487846 419.98572788 C140.36674745 445.68614632 140.39581346 471.38651522 140.44446129 497.08689791 C140.47326263 512.33672118 140.49597002 527.58654361 140.51294762 542.83638471 C140.52359893 552.17667513 140.53977268 561.51691725 140.56408982 570.85718228 C140.57962125 577.03435464 140.58778 583.21150877 140.59001543 589.38870017 C140.59148137 592.86002426 140.59593872 596.33126183 140.60976624 599.80256057 C140.67808996 619.19436242 140.13994198 638.50609556 136.7013092 657.64242554 C136.53469788 658.57610962 136.36808655 659.5097937 136.19642639 660.47177124 C131.63165003 684.64616667 122.91123157 707.59628755 111.3888092 729.26742554 C111.01530334 729.98108276 110.64179749 730.69473999 110.25697327 731.43002319 C100.31964134 750.34074102 87.9739267 767.08487929 73.5763092 782.85726929 C71.45614304 785.19323808 69.39183611 787.57069429 67.3263092 789.95492554 C64.32142394 793.33027611 61.20601886 796.36454886 57.75209045 799.27523804 C55.93218485 800.80937334 54.14625981 802.36451438 52.36927795 803.94711304 C19.48902219 833.03441879 -19.53137647 850.7128494 -62.6111908 858.26742554 C-63.34595642 858.40019897 -64.08072205 858.53297241 -64.8377533 858.66976929 C-123.67305985 868.77853817 -187.97672708 852.14370407 -236.4236908 818.32992554 C-243.67678463 813.1681629 -250.44523448 807.511819 -257.09092712 801.5965271 C-258.63116506 800.24996289 -260.20517767 798.95450061 -261.7908783 797.66195679 C-264.13968793 795.66774583 -266.08738861 793.74990098 -268.0486908 791.39242554 C-270.22788973 788.78175613 -272.5102797 786.37299648 -274.94322205 784.00180054 C-278.59702181 780.37264616 -281.76065197 776.49823224 -284.8611908 772.39242554 C-285.42128845 771.6512146 -285.98138611 770.91000366 -286.55845642 770.14633179 C-322.009761 722.69056507 -337.75058673 666.97123107 -337.77915955 608.15805054 C-337.78238294 606.57241793 -337.78574777 604.98678559 -337.78924561 603.40115356 C-337.79517029 600.11373197 -337.79709182 596.82633645 -337.79649353 593.53890991 C-337.79639079 589.32571872 -337.81018582 585.11269186 -337.82726574 580.89953995 C-337.83835679 577.64138005 -337.84041385 574.38326077 -337.8398838 571.12508392 C-337.84106278 569.57013112 -337.84547993 568.01517723 -337.85321617 566.46024323 C-337.86298304 564.29982062 -337.86015439 562.13976779 -337.85411072 559.9793396 C-337.85553574 558.75217224 -337.85696075 557.52500488 -337.85842896 556.26065063 C-337.6111908 553.26742554 -337.6111908 553.26742554 -335.6111908 550.26742554 C-333.1217804 549.88990211 -333.1217804 549.88990211 -329.91734314 549.88647461 C-328.10009735 549.8737854 -328.10009735 549.8737854 -326.24613953 549.86083984 C-324.89646778 549.86667326 -323.54679736 549.8728178 -322.1971283 549.87924194 C-320.78137303 549.87517864 -319.36562093 549.86983812 -317.94987488 549.86331177 C-314.0986635 549.84960348 -310.24769248 549.85495115 -306.39647675 549.86444902 C-302.37217546 549.87202753 -298.3478952 549.86500506 -294.32359314 549.86029053 C-287.5646036 549.85482767 -280.8057123 549.86203842 -274.04673767 549.87631226 C-266.22478297 549.89263983 -258.40306283 549.8873517 -250.58111382 549.87083304 C-243.87364629 549.8572332 -237.16624951 549.85529112 -230.45877266 549.86314905 C-226.44905374 549.86783387 -222.43944517 549.86842834 -218.42973328 549.85853958 C-214.66058586 549.84989394 -210.89174179 549.85584737 -207.12262726 549.87322235 C-205.73667149 549.87720013 -204.35069034 549.87603117 -202.96474457 549.86943436 C-201.07818493 549.86128045 -199.19156972 549.8733016 -197.30503845 549.88647461 C-195.71884201 549.88817122 -195.71884201 549.88817122 -194.1006012 549.88990211 C-193.27909576 550.01448484 -192.45759033 550.13906757 -191.6111908 550.26742554 C-189.26210917 553.79104797 -189.35587375 555.25259034 -189.33995056 559.42514038 C-189.32467064 561.33521378 -189.32467064 561.33521378 -189.30908203 563.28387451 C-189.30814104 563.9659837 -189.30720005 564.64809288 -189.30623055 565.35087204 C-189.30254681 567.50777893 -189.28575307 569.66423397 -189.26547241 571.82104492 C-189.21034285 577.95477724 -189.17984195 584.0885827 -189.15489197 590.22250366 C-188.98816036 627.4411225 -186.38418177 660.45044169 -159.4236908 688.95492554 C-141.97893217 705.83930784 -119.35952026 712.73582155 -95.4158783 712.47836304 C-71.78166855 711.16804751 -51.63192469 700.56502988 -35.6111908 683.26742554 C-12.94745179 656.86051415 -8.13268395 627.37695278 -8.22592163 593.57234192 C-8.22190786 591.01236511 -8.21657767 588.45239009 -8.21005589 585.89241844 C-8.19802868 580.35785663 -8.19686596 574.82337897 -8.20311546 569.28880882 C-8.2123441 561.05921775 -8.20421541 552.82970552 -8.19261837 544.60012065 C-8.1735454 530.75134237 -8.16796849 516.90259048 -8.16993523 503.05380058 C-8.17177815 489.3513004 -8.16653651 475.64882993 -8.1522541 461.94633675 C-8.15136423 461.09255709 -8.15047435 460.23877743 -8.1495575 459.35912565 C-8.1449874 455.02270958 -8.14027033 450.68629368 -8.13548268 446.34987784 C-8.12578661 437.53486073 -8.11705416 428.71984266 -8.10862064 419.90482426 C-8.10735426 418.58154434 -8.10735426 418.58154434 -8.1060623 417.2315315 C-8.08624209 396.26539087 -8.07622706 375.2992471 -8.06748962 354.33309937 C-8.06691263 352.95807699 -8.06691263 352.95807699 -8.06632397 351.55527638 C-8.06320756 344.1270623 -8.06011639 336.6988482 -8.05706627 329.27063408 C-8.04825255 307.84223593 -8.03703367 286.41383941 -8.02452087 264.98544312 C-8.02372085 263.60729205 -8.02372085 263.60729205 -8.02290466 262.20129956 C-8.01069488 241.2357113 -7.99641202 220.27012638 -7.97696781 199.3045435 C-7.97615295 198.42423215 -7.9753381 197.54392081 -7.97449855 196.63693337 C-7.96633353 187.85073304 -7.9578967 179.06453303 -7.94900865 170.2783334 C-7.92999912 151.3906004 -7.91703015 132.50288871 -7.9160139 113.61514565 C-7.91522274 99.86239412 -7.9078644 86.10966056 -7.89348417 72.35691636 C-7.88518522 64.17883578 -7.88263291 56.0007979 -7.88803434 47.82271467 C-7.89146356 41.73215384 -7.88463576 35.64165156 -7.87369455 29.55109764 C-7.87090827 27.07587391 -7.87156945 24.60064361 -7.87587564 22.12542205 C-7.88122578 18.78231637 -7.874496 15.4394556 -7.86452389 12.09636593 C-7.86903111 11.11716992 -7.87353834 10.13797391 -7.87818214 9.1291053 C-7.87302281 8.24506058 -7.86786349 7.36101586 -7.86254781 6.4501819 C-7.86228315 5.68482456 -7.86201849 4.91946721 -7.8617458 4.13091722 C-7.24076567 -0.48759479 -3.80421016 0.01224344 0 0 Z " fill="#FEFEFE" transform="translate(848.6111907958984,319.7325744628906)"/>
</svg>
